<svg xmlns="http://www.w3.org/2000/svg" xmlns:xlink="http://www.w3.org/1999/xlink" xml:space="preserve" version="1.1" style="shape-rendering:geometricPrecision;text-rendering:geometricPrecision;image-rendering:optimizeQuality;" viewBox="0 0 333 416.25" x="0px" y="0px" fill-rule="evenodd" clip-rule="evenodd"><defs><style type="text/css">
   
    .fil0 {fill:black}
    .fil1 {fill:black;fill-rule:nonzero}
   
  </style></defs><g><g><path class="fil0" d="M167 19l64 37 64 37 0 74 0 73 -64 37 -64 37 -64 -37 -64 -37 0 -73 0 -74 64 -37 64 -37zm0 42l46 26 46 27 0 53 0 53 -46 26 -46 27 -46 -27 -46 -26 0 -53 0 -53 46 -27 46 -26z"/><path class="fil1" d="M168 72l40 23 0 0 39 23 2 1 0 2 0 46 0 45 0 2 -2 1 -39 23 0 0 -40 23 -1 1 -2 -1 -40 -23 0 0 -39 -23 -2 -1 0 -2 0 -45 0 -46 0 -2 2 -1 39 -23 0 0 40 -23 2 -1 1 1zm36 29l-37 -22 -38 22 0 0 -38 22 0 44 0 43 38 22 0 0 38 22 37 -22 0 0 38 -22 0 -43 0 -44 -38 -22 0 0z"/></g></g></svg>